<svg width="150" height="32" viewBox="0 0 150 32" fill="none" xmlns="http://www.w3.org/2000/svg">
<path d="M45.9858 11.5653C45.9176 10.8778 45.625 10.3437 45.108 9.96307C44.5909 9.58239 43.8892 9.39204 43.0028 9.39204C42.4006 9.39204 41.892 9.47727 41.4773 9.64773C41.0625 9.8125 40.7443 10.0426 40.5227 10.3381C40.3068 10.6335 40.1989 10.9688 40.1989 11.3438C40.1875 11.6562 40.2528 11.929 40.3949 12.1619C40.5426 12.3949 40.7443 12.5966 41 12.767C41.2557 12.9318 41.5511 13.0767 41.8864 13.2017C42.2216 13.321 42.5795 13.4233 42.9602 13.5085L44.5284 13.8835C45.2898 14.054 45.9886 14.2812 46.625 14.5653C47.2614 14.8494 47.8125 15.1989 48.2784 15.6136C48.7443 16.0284 49.1051 16.517 49.3608 17.0795C49.6222 17.642 49.7557 18.2869 49.7614 19.0142C49.7557 20.0824 49.483 21.0085 48.9432 21.7926C48.4091 22.571 47.6364 23.1761 46.625 23.608C45.6193 24.0341 44.4063 24.2472 42.9858 24.2472C41.5767 24.2472 40.3494 24.0312 39.304 23.5994C38.2642 23.1676 37.4517 22.5284 36.8665 21.6818C36.2869 20.8295 35.983 19.7756 35.9545 18.5199H39.5256C39.5653 19.1051 39.733 19.5937 40.0284 19.9858C40.3295 20.3722 40.7301 20.6648 41.2301 20.8636C41.7358 21.0568 42.3068 21.1534 42.9432 21.1534C43.5682 21.1534 44.1108 21.0625 44.571 20.8807C45.0369 20.6989 45.3977 20.446 45.6534 20.1222C45.9091 19.7983 46.0369 19.4261 46.0369 19.0057C46.0369 18.6136 45.9205 18.2841 45.6875 18.017C45.4602 17.75 45.125 17.5227 44.6818 17.3352C44.2443 17.1477 43.7074 16.9773 43.071 16.8239L41.1705 16.3466C39.6989 15.9886 38.5369 15.429 37.6847 14.6676C36.8324 13.9062 36.4091 12.8807 36.4148 11.5909C36.4091 10.5341 36.6903 9.6108 37.2585 8.82102C37.8324 8.03125 38.6193 7.41477 39.6193 6.97159C40.6193 6.52841 41.7557 6.30682 43.0284 6.30682C44.3239 6.30682 45.4545 6.52841 46.4205 6.97159C47.392 7.41477 48.1477 8.03125 48.6875 8.82102C49.2273 9.6108 49.5057 10.5256 49.5227 11.5653H45.9858ZM52.1754 28.9091V10.9091H55.755V13.108H55.9169C56.076 12.7557 56.3061 12.3977 56.6072 12.0341C56.9141 11.6648 57.3118 11.358 57.8004 11.1136C58.2947 10.8636 58.9084 10.7386 59.6413 10.7386C60.5959 10.7386 61.4766 10.9886 62.2834 11.4886C63.0902 11.983 63.7351 12.7301 64.218 13.7301C64.701 14.7244 64.9425 15.9716 64.9425 17.4716C64.9425 18.9318 64.7067 20.1648 64.2351 21.1705C63.7692 22.1705 63.1328 22.929 62.326 23.446C61.5249 23.9574 60.6271 24.2131 59.6328 24.2131C58.9283 24.2131 58.3288 24.0966 57.8345 23.8636C57.3459 23.6307 56.9453 23.3381 56.6328 22.9858C56.3203 22.6278 56.0817 22.267 55.9169 21.9034H55.8061V28.9091H52.1754ZM55.7294 17.4545C55.7294 18.233 55.8374 18.9119 56.0533 19.4915C56.2692 20.071 56.5817 20.5227 56.9908 20.8466C57.3999 21.1648 57.897 21.3239 58.4822 21.3239C59.0732 21.3239 59.5732 21.1619 59.9822 20.8381C60.3913 20.5085 60.701 20.054 60.9112 19.4744C61.1271 18.8892 61.2351 18.2159 61.2351 17.4545C61.2351 16.6989 61.13 16.0341 60.9197 15.4602C60.7095 14.8864 60.3999 14.4375 59.9908 14.1136C59.5817 13.7898 59.0788 13.6278 58.4822 13.6278C57.8913 13.6278 57.3913 13.7841 56.9822 14.0966C56.5788 14.4091 56.2692 14.8523 56.0533 15.4261C55.8374 16 55.7294 16.6761 55.7294 17.4545ZM73.3288 24.2557C71.9822 24.2557 70.8232 23.983 69.8516 23.4375C68.8857 22.8864 68.1413 22.108 67.6186 21.1023C67.0959 20.0909 66.8345 18.8949 66.8345 17.5142C66.8345 16.1676 67.0959 14.9858 67.6186 13.9688C68.1413 12.9517 68.8771 12.1591 69.826 11.5909C70.7805 11.0227 71.8999 10.7386 73.1839 10.7386C74.0476 10.7386 74.8516 10.8778 75.5959 11.1562C76.3459 11.429 76.9993 11.8409 77.5561 12.392C78.1186 12.9432 78.5561 13.6364 78.8686 14.4716C79.1811 15.3011 79.3374 16.2727 79.3374 17.3864V18.3835H68.2834V16.1335H75.9197C75.9197 15.6108 75.8061 15.1477 75.5788 14.7443C75.3516 14.3409 75.0362 14.0256 74.6328 13.7983C74.2351 13.5653 73.772 13.4489 73.2436 13.4489C72.6925 13.4489 72.2038 13.5767 71.7777 13.8324C71.3572 14.0824 71.0277 14.4205 70.7891 14.8466C70.5504 15.267 70.4283 15.7358 70.4226 16.2528V18.392C70.4226 19.0398 70.5419 19.5994 70.7805 20.071C71.0249 20.5426 71.3686 20.9062 71.8118 21.1619C72.255 21.4176 72.7805 21.5455 73.3885 21.5455C73.7919 21.5455 74.1612 21.4886 74.4964 21.375C74.8317 21.2614 75.1186 21.0909 75.3572 20.8636C75.5959 20.6364 75.7777 20.358 75.9027 20.0284L79.2607 20.25C79.0902 21.0568 78.7408 21.7614 78.2124 22.3636C77.6896 22.9602 77.0135 23.4261 76.1839 23.7614C75.3601 24.0909 74.4084 24.2557 73.3288 24.2557ZM85.3374 6.54545V24H81.7067V6.54545H85.3374ZM91.8764 6.54545V24H88.2457V6.54545H91.8764ZM100.7 24.2557C99.3587 24.2557 98.2053 23.9716 97.2393 23.4034C96.2791 22.8295 95.5405 22.0341 95.0234 21.017C94.5121 20 94.2564 18.8295 94.2564 17.5057C94.2564 16.1648 94.5149 14.9886 95.032 13.9773C95.5547 12.9602 96.2962 12.1676 97.2564 11.5994C98.2166 11.0256 99.3587 10.7386 100.683 10.7386C101.825 10.7386 102.825 10.946 103.683 11.3608C104.54 11.7756 105.219 12.358 105.719 13.108C106.219 13.858 106.495 14.7386 106.546 15.75H103.12C103.023 15.0966 102.768 14.571 102.353 14.1733C101.944 13.7699 101.407 13.5682 100.742 13.5682C100.18 13.5682 99.6882 13.7216 99.2678 14.0284C98.853 14.3295 98.5291 14.7699 98.2962 15.3494C98.0632 15.929 97.9467 16.6307 97.9467 17.4545C97.9467 18.2898 98.0604 19 98.2876 19.5852C98.5206 20.1705 98.8473 20.6165 99.2678 20.9233C99.6882 21.2301 100.18 21.3835 100.742 21.3835C101.157 21.3835 101.529 21.2983 101.859 21.1278C102.194 20.9574 102.469 20.7102 102.685 20.3864C102.907 20.0568 103.052 19.6619 103.12 19.2017H106.546C106.489 20.2017 106.217 21.0824 105.728 21.8438C105.245 22.5994 104.577 23.1903 103.725 23.6165C102.873 24.0426 101.864 24.2557 100.7 24.2557ZM108.871 24V10.9091H112.391V13.1932H112.527C112.766 12.3807 113.166 11.767 113.729 11.3523C114.291 10.9318 114.939 10.7216 115.672 10.7216C115.854 10.7216 116.05 10.733 116.26 10.7557C116.47 10.7784 116.655 10.8097 116.814 10.8494V14.071C116.643 14.0199 116.408 13.9744 116.107 13.9347C115.805 13.8949 115.53 13.875 115.28 13.875C114.746 13.875 114.268 13.9915 113.848 14.2244C113.433 14.4517 113.104 14.7699 112.859 15.179C112.621 15.5881 112.501 16.0597 112.501 16.5938V24H108.871ZM122.049 24.2472C121.214 24.2472 120.469 24.1023 119.816 23.8125C119.163 23.517 118.646 23.0824 118.265 22.5085C117.89 21.929 117.702 21.2074 117.702 20.3438C117.702 19.6165 117.836 19.0057 118.103 18.5114C118.37 18.017 118.734 17.6193 119.194 17.3182C119.654 17.017 120.177 16.7898 120.762 16.6364C121.353 16.483 121.972 16.375 122.62 16.3125C123.381 16.233 123.995 16.1591 124.461 16.0909C124.927 16.017 125.265 15.9091 125.475 15.767C125.685 15.625 125.79 15.4148 125.79 15.1364V15.0852C125.79 14.5455 125.62 14.1278 125.279 13.8324C124.944 13.5369 124.467 13.3892 123.847 13.3892C123.194 13.3892 122.674 13.5341 122.288 13.8239C121.901 14.108 121.646 14.4659 121.521 14.8977L118.163 14.625C118.333 13.8295 118.668 13.142 119.168 12.5625C119.668 11.9773 120.313 11.5284 121.103 11.2159C121.898 10.8977 122.819 10.7386 123.864 10.7386C124.592 10.7386 125.288 10.8239 125.952 10.9943C126.623 11.1648 127.217 11.429 127.734 11.7869C128.256 12.1449 128.668 12.6051 128.969 13.1676C129.271 13.7244 129.421 14.392 129.421 15.1705V24H125.978V22.1847H125.876C125.665 22.5938 125.384 22.9545 125.032 23.267C124.68 23.5739 124.256 23.8153 123.762 23.9915C123.268 24.1619 122.697 24.2472 122.049 24.2472ZM123.089 21.7415C123.623 21.7415 124.094 21.6364 124.504 21.4261C124.913 21.2102 125.234 20.9205 125.467 20.5568C125.7 20.1932 125.816 19.7812 125.816 19.321V17.9318C125.702 18.0057 125.546 18.0739 125.347 18.1364C125.154 18.1932 124.935 18.2472 124.691 18.2983C124.447 18.3437 124.202 18.3864 123.958 18.4261C123.714 18.4602 123.492 18.4915 123.293 18.5199C122.867 18.5824 122.495 18.6818 122.177 18.8182C121.859 18.9545 121.612 19.1392 121.435 19.3722C121.259 19.5994 121.171 19.8835 121.171 20.2244C121.171 20.7188 121.35 21.0966 121.708 21.358C122.072 21.6136 122.532 21.7415 123.089 21.7415ZM139.278 10.9091V13.6364H131.198V10.9091H139.278ZM133.048 24V9.96307C133.048 9.0142 133.232 8.22727 133.602 7.60227C133.977 6.97727 134.488 6.50852 135.136 6.19602C135.783 5.88352 136.519 5.72727 137.343 5.72727C137.9 5.72727 138.408 5.76989 138.869 5.85511C139.335 5.94034 139.681 6.01705 139.908 6.08523L139.261 8.8125C139.119 8.76705 138.942 8.72443 138.732 8.68466C138.528 8.64489 138.317 8.625 138.102 8.625C137.567 8.625 137.195 8.75 136.985 9C136.775 9.24432 136.67 9.58807 136.67 10.0312V24H133.048ZM148.459 10.9091V13.6364H140.575V10.9091H148.459ZM142.365 7.77273H145.996V19.9773C145.996 20.3125 146.047 20.5739 146.149 20.7614C146.251 20.9432 146.393 21.071 146.575 21.1449C146.763 21.2187 146.979 21.2557 147.223 21.2557C147.393 21.2557 147.564 21.2415 147.734 21.2131C147.905 21.179 148.036 21.1534 148.126 21.1364L148.697 23.8381C148.516 23.8949 148.26 23.9602 147.93 24.0341C147.601 24.1136 147.2 24.1619 146.729 24.179C145.854 24.2131 145.087 24.0966 144.428 23.8295C143.774 23.5625 143.266 23.1477 142.902 22.5852C142.538 22.0227 142.359 21.3125 142.365 20.4545V7.77273Z" fill="#D5D5EF"/>
<circle cx="16" cy="16" r="12" fill="#5D428E"/>
<circle cx="16" cy="16" r="6" fill="#A071FF"/>
<circle cx="16" cy="16" r="2" fill="#5D428E"/>
<path d="M28.0002 16C28.0002 12.8174 26.7359 9.76516 24.4855 7.51472C22.235 5.26428 19.1828 4 16.0002 4C12.8176 4 9.76533 5.26428 7.51489 7.51472" stroke="#A071FF" stroke-width="4"/>
<path d="M4.76185 20.2086C5.53885 22.2836 6.87518 24.103 8.62276 25.4651C10.3703 26.8272 12.4609 27.6789 14.6628 27.9258" stroke="#A071FF" stroke-width="4"/>
</svg>
